<svg xmlns="http://www.w3.org/2000/svg" viewBox="0 0 100 100" width="100%" height="100%">
  <!-- High contrast dark base -->
  <rect width="100" height="100" fill="#000000" rx="16"/>
  
  <!-- Biometric Fingerprint Security Mark -->
  <g fill="none" stroke="#FFFFFF" stroke-width="8.5" stroke-linecap="round" stroke-linejoin="round">
    <!-- Outer Top Arch -->
    <path d="M 23 51 C 23 32, 35 19, 50 19 C 65 19, 73 28, 73 35" />
    
    <!-- Inner Top-Right Loop -->
    <path d="M 41 35 C 45 31, 53 31, 60 36 C 66 42, 68 52, 68 62" />
    
    <!-- Leftmost Feature Dot -->
    <path d="M 22 61.5 L 22.01 61.5" />
    
    <!-- Left Major Ridge -->
    <path d="M 34 43 C 33 53, 32 63, 30 72" />
    
    <!-- Center-Left Ridge -->
    <path d="M 42 45 C 42 52, 43 56, 43 62" />
    
    <!-- Bottom-Left Ridge Segment -->
    <path d="M 41 79 L 43 71" />
    
    <!-- Center Flow Ridge -->
    <path d="M 51 43 C 54 44, 55 48, 55 56 L 55 67 C 55 72, 54 75, 54 79" />
    
    <!-- Right-Center Ridge Segment -->
    <path d="M 66 66 C 65 70, 65 73, 65 76" />
    
    <!-- Right-Outer Vertical Ridge -->
    <path d="M 78 44 L 78 62" />
  </g>
</svg>
